<?xml version="1.0" encoding="UTF-8" standalone="no"?>
<svg xmlns:ffdec="https://www.free-decompiler.com/flash" xmlns:xlink="http://www.w3.org/1999/xlink" ffdec:objectType="shape" height="27.6px" width="37.05px" xmlns="http://www.w3.org/2000/svg">
  <g transform="matrix(1.0, 0.0, 0.0, 1.0, 20.1, 20.95)">
    <path d="M4.2 -1.4 L-0.9 -7.25 2.4 -13.65 7.4 -7.35 4.2 -1.4" fill="none" stroke="#000000" stroke-linecap="round" stroke-linejoin="round" stroke-width="1.0"/>
    <path d="M15.25 -10.05 L14.3 -13.85 8.05 -12.3 10.75 -9.2 12.05 -7.7 11.2 -6.1 9.4 -2.75 4.7 5.9 -2.05 -1.9 -16.55 4.9 Q-17.95 1.05 -18.6 -2.65 -19.1 -5.15 -19.25 -7.6 L-19.3 -11.95 -3.7 -11.05 1.15 -20.2 8.05 -12.3 M15.95 -5.95 L15.25 -10.05 M15.95 -5.95 Q16.35 -2.5 16.15 0.65 L9.4 -2.75 M-5.5 -7.7 L-3.7 -11.05 M-4.65 -4.9 L-6.1 -6.6 -5.5 -7.7 M-2.05 -1.9 L-4.65 -4.9" fill="none" stroke="#000000" stroke-linecap="round" stroke-linejoin="round" stroke-width="1.5"/>
    <path d="M4.2 -1.4 L4.75 -7.15 2.4 -13.65 M10.75 -9.2 L15.25 -10.05 M11.2 -6.1 L15.95 -5.95 M-5.5 -7.7 L-19.25 -7.6 M-4.65 -4.9 L-18.6 -2.65" fill="none" stroke="#000000" stroke-linecap="round" stroke-linejoin="round" stroke-opacity="0.49803922" stroke-width="1.0"/>
  </g>
</svg>
