<?xml version="1.0" encoding="UTF-8" standalone="no"?>
<svg xmlns:ffdec="https://www.free-decompiler.com/flash" xmlns:xlink="http://www.w3.org/1999/xlink" ffdec:objectType="shape" height="253.4px" width="289.55px" xmlns="http://www.w3.org/2000/svg">
  <g transform="matrix(1.0, 0.0, 0.0, 1.0, 159.3, 68.0)">
    <path d="M35.95 -58.75 Q45.4 -54.15 50.8 -47.25 55.15 -35.55 57.2 -14.95 L57.25 -14.35 Q58.55 5.0 77.55 33.25 102.9 70.1 126.85 92.95 100.65 76.4 84.85 52.45 90.4 61.45 96.65 70.3 111.75 91.35 121.35 112.4 136.8 144.8 125.5 166.5 122.9 168.25 119.55 169.7 115.35 171.5 110.0 173.1 119.8 159.05 116.4 138.4 119.3 159.0 106.3 174.75 93.65 178.15 82.75 178.9 88.65 175.65 92.35 171.6 91.1 170.25 89.0 169.3 80.75 165.65 58.6 168.35 L56.1 168.7 Q65.3 146.45 58.45 123.65 62.7 149.35 53.4 168.25 L48.45 167.25 Q28.7 163.9 6.1 168.25 -0.95 156.0 -4.35 143.75 -3.4 156.1 4.15 168.35 L-0.85 168.0 Q-21.45 166.65 -40.55 170.55 -54.4 152.0 -52.45 124.85 -55.95 150.95 -44.4 170.95 L-48.8 170.75 Q-65.8 170.15 -83.7 174.85 -81.7 180.05 -78.9 185.1 -83.65 180.7 -87.0 175.8 -94.85 164.25 -95.35 149.65 -95.7 165.8 -88.95 179.1 -87.3 182.35 -85.25 185.4 L-93.25 183.4 Q-106.85 179.8 -115.1 175.8 L-119.35 173.55 Q-123.65 152.85 -114.45 130.1 -123.95 152.2 -123.4 172.3 -135.95 166.5 -140.15 160.7 -139.65 150.6 -137.1 140.7 -140.85 150.15 -142.6 159.5 -140.85 113.6 -96.95 57.35 L-92.9 51.1 Q-128.95 80.45 -159.3 81.1 -99.0 59.25 -73.8 9.0 -69.9 -1.85 -68.35 -14.95 -68.75 -39.75 -61.65 -52.4 -53.55 -61.65 -38.5 -65.45 -24.0 -69.05 -3.0 -67.6 21.35 -65.95 35.95 -58.75" fill="url(#gradient0)" fill-rule="evenodd" stroke="none"/>
  </g>
  <defs>
    <linearGradient gradientTransform="matrix(0.0, 0.0981, -0.0741, 0.0, -5.8, -3.85)" gradientUnits="userSpaceOnUse" id="gradient0" spreadMethod="pad" x1="-819.2" x2="819.2">
      <stop offset="0.0" stop-color="#fff23c" stop-opacity="0.0"/>
      <stop offset="0.3803921568627451" stop-color="#fff23c" stop-opacity="0.84705883"/>
      <stop offset="0.6039215686274509" stop-color="#fff23c" stop-opacity="0.8"/>
      <stop offset="1.0" stop-color="#fff23c" stop-opacity="0.0"/>
    </linearGradient>
  </defs>
</svg>
