<?xml version="1.0" encoding="UTF-8" standalone="no"?>
<svg xmlns:ffdec="https://www.free-decompiler.com/flash" xmlns:xlink="http://www.w3.org/1999/xlink" ffdec:objectType="shape" height="32.4px" width="140.9px" xmlns="http://www.w3.org/2000/svg">
  <g transform="matrix(1.0, 0.0, 0.0, 1.0, 70.6, 19.1)">
    <path d="M-12.5 9.55 L-13.3 9.35 -13.6 8.65 -15.0 -1.2 -15.05 -1.2 -15.3 -3.05 -15.1 -3.75 -14.55 -4.2 Q-12.45 -4.7 -7.9 -4.35 L-7.35 -4.1 -6.95 -3.55 -6.45 -1.2 -6.4 -1.2 -4.85 6.55 -4.9 7.15 -5.3 7.6 Q-7.4 9.15 -12.5 9.55 M-32.55 -2.7 L-32.3 -3.3 -31.8 -3.6 Q-29.65 -4.3 -25.85 -3.7 L-25.1 -3.5 Q-24.85 -3.25 -24.85 -2.8 L-24.65 -1.2 -24.6 -1.2 -23.9 4.9 -24.05 5.55 -24.5 6.1 Q-26.6 7.0 -30.5 6.7 L-31.1 6.5 -31.55 6.0 Q-32.5 2.5 -32.5 -1.2 L-32.55 -1.2 -32.55 -2.7 M-49.85 -6.9 L-49.5 -7.45 -48.95 -7.7 Q-45.6 -7.9 -41.9 -5.9 L-41.5 -5.45 -41.4 -4.75 -41.9 -1.2 -41.85 -1.2 -42.55 7.2 Q-42.55 7.55 -42.85 7.9 L-43.6 8.2 Q-50.6 8.9 -52.05 8.25 L-52.55 7.8 -52.75 7.15 Q-52.35 3.1 -51.35 -1.2 L-51.4 -1.2 -49.85 -6.9 M-51.55 -16.45 L-51.15 -16.1 -50.9 -15.6 Q-50.9 -15.3 -51.05 -15.0 -54.25 -8.1 -56.25 -1.2 L-56.2 -1.2 Q-58.05 5.0 -58.95 11.2 L-59.2 11.75 -59.7 12.05 -60.3 12.15 Q-69.3 10.3 -70.25 9.25 L-70.55 8.85 -70.6 8.35 Q-70.1 3.6 -68.9 -1.2 L-68.95 -1.2 Q-66.8 -9.85 -62.2 -18.55 L-61.75 -18.95 -61.15 -19.05 Q-56.85 -18.5 -51.55 -16.45 M51.95 -10.5 L51.85 -11.05 52.05 -11.55 52.5 -11.95 Q57.6 -14.15 62.15 -14.45 L62.8 -14.25 63.25 -13.8 Q66.15 -7.35 68.05 -1.2 L68.1 -1.2 Q69.45 3.1 70.3 7.2 L70.25 7.75 69.95 8.25 Q66.9 10.95 62.55 13.2 L61.85 13.3 61.3 13.05 60.95 12.55 Q58.95 5.85 56.1 -1.2 L56.05 -1.2 51.95 -10.5 M44.25 -0.45 L44.25 -1.1 44.3 -1.2 44.25 -1.2 44.65 -1.6 Q46.0 -2.7 49.85 -3.15 L50.6 -2.95 51.0 -2.4 51.45 -1.2 51.5 -1.2 54.65 7.05 54.7 7.75 54.3 8.3 Q52.1 9.75 48.2 10.5 L47.45 10.35 46.9 9.7 44.25 -0.45 M30.95 1.45 Q30.85 1.1 31.1 0.8 L31.65 0.35 Q35.2 -0.85 37.4 -0.45 L38.0 -0.1 38.3 0.55 39.25 7.35 39.1 8.1 38.55 8.6 32.95 9.2 Q32.5 9.15 32.2 8.9 L31.85 8.25 30.95 1.45 M18.0 0.3 L18.15 -0.35 18.65 -0.8 19.3 -0.85 24.0 -0.25 Q24.45 -0.15 24.7 0.15 L24.95 0.95 24.5 6.2 24.25 6.85 23.4 7.15 19.55 7.15 Q19.15 7.15 18.85 6.85 18.5 6.6 18.5 6.2 L18.0 0.3 M1.5 -3.95 L1.75 -4.5 2.25 -4.85 Q4.6 -5.6 8.0 -4.95 L8.65 -4.6 8.9 -3.9 8.9 -1.2 8.95 -1.2 8.95 2.2 8.7 3.0 8.0 3.35 3.4 3.9 2.7 3.8 Q2.35 3.6 2.3 3.2 1.6 0.9 1.45 -1.2 L1.4 -1.2 Q1.3 -2.65 1.5 -3.95" fill="#b03aff" fill-rule="evenodd" stroke="none"/>
  </g>
</svg>
