<?xml version="1.0" encoding="UTF-8" standalone="no"?>
<svg xmlns:ffdec="https://www.free-decompiler.com/flash" xmlns:xlink="http://www.w3.org/1999/xlink" ffdec:objectType="shape" height="158.2px" width="242.4px" xmlns="http://www.w3.org/2000/svg">
  <g transform="matrix(1.0, 0.0, 0.0, 1.0, 128.5, 95.65)">
    <path d="M25.9 -52.95 L26.7 -53.25 Q29.25 -54.1 31.4 -54.55 L32.65 -54.8 44.0 -36.45 Q42.25 -34.85 39.85 -33.15 37.25 -31.45 33.95 -29.65 L27.85 -26.65 Q26.15 -25.85 24.05 -25.15 21.6 -23.9 18.75 -23.0 L18.55 -23.35 18.4 -23.65 17.9 -24.55 18.4 -23.65 17.9 -24.55 17.6 -25.05 19.2 -26.35 10.1 -41.85 8.2 -41.25 7.75 -41.9 7.05 -42.9 11.3 -46.3 15.75 -48.65 20.85 -50.95 25.9 -52.95 M17.9 -24.55 L17.6 -25.05 17.9 -24.55 M33.8 -37.25 L36.6 -38.75 30.6 -48.65 28.0 -47.35 30.6 -48.65 36.6 -38.75 33.8 -37.25 28.0 -47.35 21.6 -44.65 23.45 -41.65 23.5 -41.6 25.7 -37.75 25.85 -37.55 27.8 -34.1 33.45 -37.1 33.8 -37.25 M11.3 -46.3 L24.05 -25.15 11.3 -46.3" fill="#ffffff" fill-opacity="0.31764707" fill-rule="evenodd" stroke="none"/>
    <path d="M-92.1 21.65 L-96.55 21.0 -98.3 20.7 -109.55 17.3 Q-117.95 13.9 -124.3 8.2 L-124.45 8.05 -124.6 7.95 -124.75 7.8 -124.95 7.75 -125.2 7.45 -125.55 7.2 -126.0 6.65 -126.35 6.35 -126.65 6.05 -127.0 5.75 -127.1 5.55 -127.3 5.4 -126.55 5.45 -126.35 5.45 -125.4 5.45 -125.05 5.4 -123.6 5.45 -123.25 5.45 -121.95 5.4 -120.3 5.3 -118.95 5.15 -118.05 5.0 Q-95.4 0.1 -75.65 -10.5 -68.05 -14.65 -52.15 -20.05 L-51.25 -23.6 -46.9 -30.9 -46.5 -31.25 -43.1 -36.55 Q-45.15 -38.9 -45.15 -41.35 -45.2 -43.85 -46.9 -48.6 -48.65 -53.4 -49.6 -54.15 -50.6 -54.9 -53.75 -60.1 L-57.55 -66.55 Q-60.3 -64.0 -76.9 -64.3 L-103.1 -65.95 -102.2 -66.25 Q-90.75 -70.25 -78.65 -79.65 L-72.55 -85.0 Q-62.25 -90.95 -48.1 -94.45 -18.3 -92.35 1.55 -82.15 L2.75 -81.55 2.95 -81.45 3.7 -80.7 6.15 -78.2 8.4 -75.85 Q17.5 -66.0 24.8 -54.7 L25.9 -52.95 26.7 -53.25 Q29.25 -54.1 31.4 -54.55 L32.65 -54.8 44.0 -36.45 Q42.25 -34.85 39.85 -33.15 40.0 -33.1 40.2 -33.0 L40.25 -32.95 40.55 -32.85 40.55 -32.8 Q53.15 -28.4 74.65 -30.8 95.25 -33.8 111.1 -47.85 L111.35 -48.0 112.7 -49.25 112.4 -43.9 Q110.35 -26.65 94.15 -16.65 83.9 -10.7 71.65 -6.4 81.85 13.6 104.85 35.45 78.3 57.9 24.35 57.65 -10.75 54.45 -38.65 59.4 -86.95 64.3 -101.25 56.75 -90.0 39.55 -81.65 21.4 L-91.25 21.75 -92.05 21.65 -92.1 21.65" fill="none" stroke="#000000" stroke-linecap="round" stroke-linejoin="round" stroke-width="2.4000000000000004"/>
    <path d="M-57.55 -66.55 Q-57.4 -74.2 -55.2 -79.6 -54.2 -82.2 -52.7 -84.25 L-52.3 -84.8 M7.75 -41.9 L1.0 -39.85 -18.35 -37.35 -43.1 -36.5 -43.1 -36.55 M-52.15 -20.05 Q-44.65 -16.85 -31.6 -16.8 -1.5 -16.55 17.9 -24.55 L18.4 -23.65 18.55 -23.35 18.75 -23.0 Q21.6 -23.9 24.05 -25.15 L11.3 -46.3 15.75 -48.65 20.85 -50.95 25.9 -52.95 M17.6 -25.05 L19.2 -26.35 10.1 -41.85 8.2 -41.25 7.75 -41.9 7.05 -42.9 11.3 -46.3 M28.0 -47.35 L30.6 -48.65 36.6 -38.75 33.8 -37.25 33.45 -37.1 27.8 -34.1 25.85 -37.55 25.7 -37.75 23.5 -41.6 23.45 -41.65 21.6 -44.65 28.0 -47.35 33.8 -37.25 M24.05 -25.15 Q26.15 -25.85 27.85 -26.65 L33.95 -29.65 Q37.25 -31.45 39.85 -33.15 M17.6 -25.05 L17.9 -24.55 M-58.6 20.5 L-58.3 20.45 -55.75 20.0 35.8 2.15 40.85 1.4 Q49.2 -0.05 57.05 -2.0 64.7 -3.95 71.65 -6.4 M40.25 -32.95 Q40.35 -32.9 40.55 -32.8 M111.1 -47.85 Q108.6 -30.4 83.85 -18.7 77.05 -15.8 68.65 -12.95 29.5 0.15 -44.65 11.4 L-60.75 13.75 -72.9 15.15 -78.95 15.4 -91.5 14.55 Q-96.45 13.9 -101.0 12.65 L-101.6 12.5 Q-110.6 9.95 -117.9 5.1 L-118.05 5.0 M-81.65 21.4 L-58.95 20.55" fill="none" stroke="#000000" stroke-linecap="round" stroke-linejoin="round" stroke-opacity="0.49803922" stroke-width="1.6"/>
  </g>
</svg>
